<svg xmlns="http://www.w3.org/2000/svg" viewBox="0 0 51 38.67"><defs><style>.cls-1{fill:none;stroke:#ff0;stroke-linecap:round;stroke-linejoin:round}</style></defs><title>Ресурс 1</title><g id="Слой_2" data-name="Слой 2"><g id="Слой_1-2" data-name="Слой 1"><path class="cls-1" d="M5.27 33.06H2.5a2 2 0 0 1-2-2v-7.95a2 2 0 0 1 2-2h1.76A2 2 0 0 0 6.05 20l1.71-3.5a9.78 9.78 0 0 1 9-5.61h9.54a9.66 9.66 0 0 1 7.15 3l6.47 6.61a1.93 1.93 0 0 0 1.43.6h7.15a2 2 0 0 1 2 2V31a2 2 0 0 1-2 2h-2.88m-10.24 0H15.5"/><path class="cls-1" d="M40.05 20.63H16a2 2 0 0 1-2-2v-2.57a2 2 0 0 1 2-2h17.53m-7.02-.01v6.58M.5 24.05h4.84m40.32 0h4.84m-24.99 0h4.99v2.51m-20.11 1.37a5.12 5.12 0 1 0 5.11 5.13 5.13 5.13 0 0 0-5.11-5.13zm30.12 0a5.12 5.12 0 1 0 5.11 5.13 5.14 5.14 0 0 0-5.11-5.13z"/><path class="cls-1" d="M40.51 31.8a1.25 1.25 0 1 0 0 2.5 1.25 1.25 0 0 0 0-2.5zm-30.12 0a1.25 1.25 0 1 0 1.25 1.25 1.25 1.25 0 0 0-1.25-1.25zM25.51 8.05v2.82M15.5 8.05v2.82M31.39.5h-20a1 1 0 0 0-1 1V7a1 1 0 0 0 1 1h20a1 1 0 0 0 1-1V1.5a1 1 0 0 0-1-1zM13.91 2.84v2.83m4.97-2.83v2.83m4.97-2.83v2.83m4.97-2.83v2.83"/></g></g></svg>