<svg xmlns="http://www.w3.org/2000/svg" viewBox="0 0 2499.98 2500"><title>facebook</title><g id="Слой_2" data-name="Слой 2"><g id="Слой_1-2" data-name="Слой 1"><path d="M2362,2500a138,138,0,0,0,138-138V138A138,138,0,0,0,2362,0H138A138,138,0,0,0,0,138V2362a138,138,0,0,0,138,138H2362Z" style="fill:#485a96"/><path d="M1724.95,2500V1531.87h325l48.65-377.3H1724.94V913.67c0-109.24,30.33-183.68,187-183.68l199.79-.09V392.45c-34.55-4.59-153.16-14.87-291.13-14.87-288.06,0-485.28,175.83-485.28,498.74v278.25H1009.52v377.3h325.79V2500h389.64Z" style="fill:#fff"/></g></g></svg>