<svg xmlns="http://www.w3.org/2000/svg" viewBox="0 0 2441.86 2441.86"><title>google+</title><g id="Слой_2" data-name="Слой 2"><g id="Слой_1-2" data-name="Слой 1"><rect width="2441.86" height="2441.86" rx="67.83" ry="67.83" style="fill:#dc4e41"/><path d="M976.74,1159.88V1306.4H1219.1c-9.77,62.88-73.26,184.36-242.35,184.36-145.9,0-264.94-120.87-264.94-269.83s119-269.83,264.94-269.83c83,0,138.58,35.41,170.32,65.93l116-111.72c-74.48-69.59-170.93-111.72-286.31-111.72-236.25,0-427.33,191.08-427.33,427.33s191.08,427.33,427.33,427.33c246.63,0,410.23-173.37,410.23-417.56,0-28.08-3.05-49.45-6.72-70.81H976.74Z" style="fill:#fff"/><path d="M976.74,1167.21h403.52a316.27,316.27,0,0,1,6.72,67.15v-4.27c0-28.08-3.05-49.45-6.72-70.81H976.74Zm0-366.28c112.94,0,208.17,40.9,281.42,108.05l4.27-4.27c-73.87-69-170.32-111.1-285.7-111.1-236.25,0-427.33,191.08-427.33,427.33v3.66c2.44-233.81,192.91-423.66,427.33-423.66Zm0,697.15c169.1,0,232.59-120.87,242.35-184.36h-1.83c-13.43,64.71-77.53,176.42-240.52,176.42-144.68,0-262.5-119-264.33-265.55,0,1.22-.61,2.44-.61,3.66C711.8,1377.21,830.84,1498.08,976.74,1498.08Z" style="fill:#fff;opacity:0.4000000059604645;isolation:isolate"/><path d="M976.74,951.1c-145.9,0-264.94,120.87-264.94,269.83,0,1.22.61,2.44.61,3.66C714.24,1077.47,832.06,959,976.74,959c83,0,138.58,35.41,170.32,65.93l116-111.72c-1.22-1.22-3.05-2.44-4.27-3.66l-111.72,108.05c-31.74-30.52-87.3-66.54-170.32-66.54Zm0,355.29v7.33h240.52c.61-2.44,1.22-5.49,1.83-7.33Z" style="fill:#3e2723;opacity:0.10000000149011612;isolation:isolate"/><path d="M976.74,1648.26c-234.42,0-424.88-189.24-427.33-423.66v3.66c0,236.25,191.08,427.33,427.33,427.33,246.63,0,410.23-173.37,410.23-417.56v-3.66C1385.15,1476.72,1222.15,1648.26,976.74,1648.26Z" style="fill:#3e2723;opacity:0.10000000149011612;isolation:isolate"/><path d="M1892.44,1159.88H1770.35V1037.79H1648.26v122.09H1526.16V1282h122.09v122.09h122.09V1282h122.09" style="fill:#fff"/><path d="M1770.35,1159.88h122.09v7.33H1770.35Zm-122.09-122.09h122.09v7.33H1648.26Zm-122.09,122.09h122.09v7.33H1526.16Z" style="fill:#fff;opacity:0.4000000059604645;isolation:isolate"/><path d="M1526.16,1282h122.09v7.33H1526.16Zm244.19,0h122.09v7.33H1770.35Zm-122.09,122.09h122.09v7.33H1648.26Z" style="fill:#3e2723;opacity:0.10000000149011612;isolation:isolate"/><path d="M244.19,244.19H2197.67V2197.67H244.19Z" style="fill:none"/></g></g></svg>