<svg xmlns="http://www.w3.org/2000/svg" viewBox="0 0 51 38.67"><title>icon1-3</title><g id="Слой_2" data-name="Слой 2"><g id="Слой_1-2" data-name="Слой 1"><g id="Слой_2-2" data-name="Слой 2"><g id="Слой_1-2-2" data-name="Слой 1-2"><path d="M5.27,33.06H2.5a2,2,0,0,1-2-2v-8a2,2,0,0,1,2-2H4.26A2,2,0,0,0,6.05,20l1.71-3.5a9.78,9.78,0,0,1,9-5.61H26.3a9.66,9.66,0,0,1,7.15,3l6.47,6.61a1.93,1.93,0,0,0,1.43.6H48.5a2,2,0,0,1,2,2V31a2,2,0,0,1-2,2H45.62M35.38,33H15.5" style="fill:none;stroke:#ff0;stroke-linecap:round;stroke-linejoin:round"/><path d="M40,20.63H16a2,2,0,0,1-2-2V16.06a2,2,0,0,1,2-2H33.53" style="fill:none;stroke:#ff0;stroke-linecap:round;stroke-linejoin:round"/><line x1="26.51" y1="14.05" x2="26.51" y2="20.63" style="fill:none;stroke:#ff0;stroke-linecap:round;stroke-linejoin:round"/><line x1="0.5" y1="24.05" x2="5.34" y2="24.05" style="fill:none;stroke:#ff0;stroke-linecap:round;stroke-linejoin:round"/><line x1="45.66" y1="24.05" x2="50.5" y2="24.05" style="fill:none;stroke:#ff0;stroke-linecap:round;stroke-linejoin:round"/><polyline points="25.51 24.05 30.5 24.05 30.5 26.56" style="fill:none;stroke:#ff0;stroke-linecap:round;stroke-linejoin:round"/><path d="M10.39,27.93a5.12,5.12,0,1,0,5.11,5.13A5.12,5.12,0,0,0,10.39,27.93Z" style="fill:none;stroke:#ff0;stroke-linecap:round;stroke-linejoin:round"/><path d="M40.51,27.93a5.12,5.12,0,1,0,5.11,5.13A5.12,5.12,0,0,0,40.51,27.93Z" style="fill:none;stroke:#ff0;stroke-linecap:round;stroke-linejoin:round"/><path d="M40.51,31.8A1.25,1.25,0,1,0,41.76,33,1.25,1.25,0,0,0,40.51,31.8Z" style="fill:none;stroke:#ff0;stroke-linecap:round;stroke-linejoin:round"/><path d="M10.39,31.8A1.25,1.25,0,1,0,11.64,33,1.25,1.25,0,0,0,10.39,31.8Z" style="fill:none;stroke:#ff0;stroke-linecap:round;stroke-linejoin:round"/><line x1="25.51" y1="8.05" x2="25.51" y2="10.87" style="fill:none;stroke:#ff0;stroke-linecap:round;stroke-linejoin:round"/><line x1="15.5" y1="8.05" x2="15.5" y2="10.87" style="fill:none;stroke:#ff0;stroke-linecap:round;stroke-linejoin:round"/><path d="M31.39.5h-20a1,1,0,0,0-1,1V7a1,1,0,0,0,1,1h20a1,1,0,0,0,1-1V1.5A1,1,0,0,0,31.39.5Z" style="fill:none;stroke:#ff0;stroke-linecap:round;stroke-linejoin:round"/><line x1="13.91" y1="2.84" x2="13.91" y2="5.67" style="fill:none;stroke:#ff0;stroke-linecap:round;stroke-linejoin:round"/><line x1="18.88" y1="2.84" x2="18.88" y2="5.67" style="fill:none;stroke:#ff0;stroke-linecap:round;stroke-linejoin:round"/><line x1="23.85" y1="2.84" x2="23.85" y2="5.67" style="fill:none;stroke:#ff0;stroke-linecap:round;stroke-linejoin:round"/><line x1="28.82" y1="2.84" x2="28.82" y2="5.67" style="fill:none;stroke:#ff0;stroke-linecap:round;stroke-linejoin:round"/></g></g></g></g></svg>