<svg xmlns="http://www.w3.org/2000/svg" viewBox="0 0 51.99 51.99"><title>icon3-5</title><g id="Слой_2" data-name="Слой 2"><g id="_4a5681f5-9418-4e91-a144-87eaaa97f465" data-name="4a5681f5-9418-4e91-a144-87eaaa97f465"><path d="M1.51,51h49a.5.5,0,0,0,.51-.51v-4a.5.5,0,0,0-.51-.51h-49a.5.5,0,0,0-.51.51v4a.5.5,0,0,0,.51.51Z" style="fill:none;stroke:#36c;stroke-linecap:round;stroke-linejoin:round;stroke-width:2px"/><line x1="6.01" y1="21" x2="6.01" y2="45.98" style="fill:none;stroke:#36c;stroke-linecap:round;stroke-linejoin:round;stroke-width:2px"/><line x1="45.98" y1="21" x2="45.98" y2="45.98" style="fill:none;stroke:#36c;stroke-linecap:round;stroke-linejoin:round;stroke-width:2px"/><path d="M6,11.5V16H1.51A.51.51,0,0,0,1,16.5v4a.5.5,0,0,0,.51.51h49a.5.5,0,0,0,.51-.51v-4a.5.5,0,0,0-.51-.51H46V11.5a.5.5,0,0,0-.5-.5h-4a.5.5,0,0,0-.5.5V16H11V11.5a.5.5,0,0,0-.5-.5h-4a.5.5,0,0,0-.5.5Z" style="fill:none;stroke:#36c;stroke-linecap:round;stroke-linejoin:round;stroke-width:2px"/><line x1="6.01" y1="3.5" x2="11" y2="3.5" style="fill:none;stroke:#36c;stroke-linecap:round;stroke-linejoin:round;stroke-width:2px"/><line x1="40.99" y1="3.5" x2="45.98" y2="3.5" style="fill:none;stroke:#36c;stroke-linecap:round;stroke-linejoin:round;stroke-width:2px"/><line x1="43.49" y1="1" x2="43.49" y2="6.01" style="fill:none;stroke:#36c;stroke-linecap:round;stroke-linejoin:round;stroke-width:2px"/><path d="M24,41h4a.5.5,0,0,0,.51-.5V36H33a.5.5,0,0,0,.5-.51v-4A.5.5,0,0,0,33,31H28.5v-4.5A.5.5,0,0,0,28,26H24a.5.5,0,0,0-.51.5V31H19a.51.51,0,0,0-.5.51v4A.5.5,0,0,0,19,36h4.5v4.5A.5.5,0,0,0,24,41Z" style="fill:none;stroke:#36c;stroke-linecap:round;stroke-linejoin:round;stroke-width:2px"/></g></g></svg>