<svg xmlns="http://www.w3.org/2000/svg" viewBox="0 0 51.93 49.18"><title>icon4-6</title><g id="Слой_2" data-name="Слой 2"><g id="_4a5681f5-9418-4e91-a144-87eaaa97f465" data-name="4a5681f5-9418-4e91-a144-87eaaa97f465"><path d="M37.06,4.71V6.57l-.55,0H15.43l-.56,0V4.71A3.72,3.72,0,0,1,18.57,1h14.8A3.71,3.71,0,0,1,37.06,4.71Z" style="fill:none;stroke:#36c;stroke-linecap:round;stroke-linejoin:round;stroke-width:2px"/><path d="M42.6,32.08a3.34,3.34,0,1,0-3.33-3.34A3.35,3.35,0,0,0,42.6,32.08Zm-33.28,0A3.34,3.34,0,1,0,6,28.74,3.35,3.35,0,0,0,9.32,32.08Zm6.11-20a3.37,3.37,0,0,0-3.35,3.35v3.35H39.86V15.43a3.38,3.38,0,0,0-3.35-3.35Zm-.56-5.51a8.91,8.91,0,0,0-8.32,8.86v5.09A8.9,8.9,0,0,0,1,28.74v7.1a1.78,1.78,0,0,0,1.77,1.78H49.16a1.78,1.78,0,0,0,1.77-1.78v-7.1a8.91,8.91,0,0,0-5.54-8.22V15.43a8.9,8.9,0,0,0-8.33-8.86l-.55,0H15.43Z" style="fill:none;stroke:#36c;stroke-linecap:round;stroke-linejoin:round;stroke-width:2px;fill-rule:evenodd"/><path d="M42.6,25.41a3.34,3.34,0,1,1-3.33,3.33A3.35,3.35,0,0,1,42.6,25.41Z" style="fill:none;stroke:#36c;stroke-linecap:round;stroke-linejoin:round;stroke-width:2px"/><ellipse cx="9.32" cy="28.74" rx="3.34" ry="3.34" style="fill:none;stroke:#36c;stroke-linecap:round;stroke-linejoin:round;stroke-width:2px"/><path d="M39.86,15.43v3.35H12.08V15.43a3.37,3.37,0,0,1,3.35-3.35H36.51A3.38,3.38,0,0,1,39.86,15.43Z" style="fill:none;stroke:#36c;stroke-linecap:round;stroke-linejoin:round;stroke-width:2px"/><path d="M9.32,48.18h0a3.35,3.35,0,0,0,3.34-3.35v-5H6v5a3.36,3.36,0,0,0,3.34,3.35Z" style="fill:none;stroke:#36c;stroke-linecap:round;stroke-linejoin:round;stroke-width:2px"/><path d="M42.6,48.18h0A3.36,3.36,0,0,0,46,44.83v-5H39.27v5a3.36,3.36,0,0,0,3.34,3.35Z" style="fill:none;stroke:#36c;stroke-linecap:round;stroke-linejoin:round;stroke-width:2px"/></g></g></svg>