<svg xmlns="http://www.w3.org/2000/svg" viewBox="0 0 51.99 51.99"><title>icon3-8</title><g id="Слой_2" data-name="Слой 2"><g id="_4a5681f5-9418-4e91-a144-87eaaa97f465" data-name="4a5681f5-9418-4e91-a144-87eaaa97f465"><path d="M7.43,47.42H3.5A2.5,2.5,0,0,1,1,44.93V28.5A2.5,2.5,0,0,1,3.5,26H45.44a2.47,2.47,0,0,1,2.34,1.61l3,8a2.62,2.62,0,0,1,.17.9v8.48a2.51,2.51,0,0,1-2.5,2.49H46.11m-8.95,0H16.38" style="fill:none;stroke:#36c;stroke-linecap:round;stroke-linejoin:round;stroke-width:2px"/><path d="M20.37,18.06H16a2.16,2.16,0,0,1-.55-.06L2.95,15.17A2.48,2.48,0,0,1,1,12.74V11.6l.61-.6a2.43,2.43,0,0,0,.7-2.18l-1-6.07a1.47,1.47,0,0,1,.33-1.22A1.49,1.49,0,0,1,2.77,1H5.7a1.61,1.61,0,0,1,1.36.87l3.79,6.41a2.61,2.61,0,0,0,2.3,1.44c2.21,0,14.75-.19,25.15-.19,7,0,12.69,2.87,12.69,4.68,0,3.6-7.72,3.85-10,3.85h-13" style="fill:none;stroke:#36c;stroke-linecap:round;stroke-linejoin:round;stroke-width:2px"/><polyline points="22.54 14.47 17.85 22.27 21.8 22.27 33.16 14.47" style="fill:none;stroke:#36c;stroke-linecap:round;stroke-linejoin:round;stroke-width:2px"/><path d="M7.33,46.4a4.59,4.59,0,1,0,4.58-4.59A4.59,4.59,0,0,0,7.33,46.4Z" style="fill:none;stroke:#36c;stroke-linecap:round;stroke-linejoin:round;stroke-width:2px"/><path d="M37,46.4a4.59,4.59,0,1,0,4.59-4.59A4.6,4.6,0,0,0,37,46.4Z" style="fill:none;stroke:#36c;stroke-linecap:round;stroke-linejoin:round;stroke-width:2px"/><path d="M1,35.34c10.32,0,20.64-.09,31-.09h4.31a1.47,1.47,0,0,1,1.29.72l.94,1.57a1.47,1.47,0,0,0,1.29.72H51" style="fill:none;stroke:#36c;stroke-linecap:round;stroke-linejoin:round;stroke-width:2px"/><path d="M40.61,46.4a1,1,0,1,0,1-1,1,1,0,0,0-1,1Z" style="fill:none;stroke:#36c;stroke-linecap:round;stroke-linejoin:round;stroke-width:2px"/><path d="M10.88,46.4a1,1,0,1,0,1-1,1,1,0,0,0-1,1Z" style="fill:none;stroke:#36c;stroke-linecap:round;stroke-linejoin:round;stroke-width:2px"/><polyline points="43.44 21.32 42.03 22.74 40.61 21.32" style="fill:none;stroke:#36c;stroke-linecap:round;stroke-linejoin:round;stroke-width:2px"/><polyline points="8.54 22.74 9.96 21.32 11.38 22.74" style="fill:none;stroke:#36c;stroke-linecap:round;stroke-linejoin:round;stroke-width:2px"/></g></g></svg>