<svg xmlns="http://www.w3.org/2000/svg" viewBox="0 0 51.44 51.46"><title>icon4-4</title><g id="Слой_2" data-name="Слой 2"><g id="_4a5681f5-9418-4e91-a144-87eaaa97f465" data-name="4a5681f5-9418-4e91-a144-87eaaa97f465"><path d="M31.09,4A23.42,23.42,0,1,1,4,31.1" style="fill:none;stroke:#36c;stroke-linecap:round;stroke-linejoin:round;stroke-width:2px"/><line x1="27.03" y1="1" x2="27.03" y2="6.21" style="fill:none;stroke:#36c;stroke-linecap:round;stroke-linejoin:round;stroke-width:2px"/><path d="M22.67,1.65c.2,1.55.39,3.09.58,4.64" style="fill:none;stroke:#36c;stroke-linecap:round;stroke-linejoin:round;stroke-width:2px"/><path d="M18.43,3c.39,1.34.78,2.7,1.16,4" style="fill:none;stroke:#36c;stroke-linecap:round;stroke-linejoin:round;stroke-width:2px"/><path d="M14.45,5l1.73,3.47" style="fill:none;stroke:#36c;stroke-linecap:round;stroke-linejoin:round;stroke-width:2px"/><path d="M10.81,7.64l2.31,2.89" style="fill:none;stroke:#36c;stroke-linecap:round;stroke-linejoin:round;stroke-width:2px"/><path d="M7.64,10.82l2.89,2.31" style="fill:none;stroke:#36c;stroke-linecap:round;stroke-linejoin:round;stroke-width:2px"/><path d="M5,14.46l3.47,1.73" style="fill:none;stroke:#36c;stroke-linecap:round;stroke-linejoin:round;stroke-width:2px"/><path d="M3,18.43,7,19.6" style="fill:none;stroke:#36c;stroke-linecap:round;stroke-linejoin:round;stroke-width:2px"/><path d="M1.65,22.68l4.62.58" style="fill:none;stroke:#36c;stroke-linecap:round;stroke-linejoin:round;stroke-width:2px"/><line x1="1" y1="27.03" x2="6.2" y2="27.03" style="fill:none;stroke:#36c;stroke-linecap:round;stroke-linejoin:round;stroke-width:2px"/><polyline points="2.67 35.89 3.96 31.1 7.46 34.6" style="fill:none;stroke:#36c;stroke-linecap:round;stroke-linejoin:round;stroke-width:2px"/><path d="M34.23,17,32,14.76a.86.86,0,0,0-1.19,0l-4.52,4.52a.85.85,0,0,0,0,1.2l2.25,2.25.08.08a7.44,7.44,0,0,1-2,3.7,7.25,7.25,0,0,1-3.72,2l-.07-.07-2.26-2.26a.84.84,0,0,0-1.19,0l-4.52,4.52a.84.84,0,0,0,0,1.19l2.26,2.26C23,40,40.1,22.9,34.23,17Z" style="fill:none;stroke:#36c;stroke-linecap:round;stroke-linejoin:round;stroke-width:2px"/></g></g></svg>