<svg xmlns="http://www.w3.org/2000/svg" viewBox="0 0 42.01 52"><title>icon4-5</title><g id="Слой_2" data-name="Слой 2"><g id="_4a5681f5-9418-4e91-a144-87eaaa97f465" data-name="4a5681f5-9418-4e91-a144-87eaaa97f465"><path d="M23,1H39a2,2,0,0,1,2,2V4a2,2,0,0,1-2,2H23a2,2,0,0,1-2-2V3a2,2,0,0,1,2-2Z" style="fill:none;stroke:#36c;stroke-linecap:round;stroke-linejoin:round;stroke-width:2px"/><path d="M29.67,46H39a2,2,0,0,1,2,2v1a2,2,0,0,1-2,2H23a1.76,1.76,0,0,1-.61-.09" style="fill:none;stroke:#36c;stroke-linecap:round;stroke-linejoin:round;stroke-width:2px"/><path d="M31,41h8a2,2,0,0,1,2,2v1a2,2,0,0,1-2,2H29.67" style="fill:none;stroke:#36c;stroke-linecap:round;stroke-linejoin:round;stroke-width:2px"/><path d="M23,6H39a2,2,0,0,1,2,2V9a2,2,0,0,1-2,2H23a2,2,0,0,1-2-2V8a2,2,0,0,1,2-2Z" style="fill:none;stroke:#36c;stroke-linecap:round;stroke-linejoin:round;stroke-width:2px"/><path d="M23,11H39a2,2,0,0,1,2,2v1a2,2,0,0,1-2,2H23a2,2,0,0,1-2-2V13a2,2,0,0,1,2-2Z" style="fill:none;stroke:#36c;stroke-linecap:round;stroke-linejoin:round;stroke-width:2px"/><path d="M23,16H39a2,2,0,0,1,2,2v1a2,2,0,0,1-2,2H23a2,2,0,0,1-2-2V18a2,2,0,0,1,2-2Z" style="fill:none;stroke:#36c;stroke-linecap:round;stroke-linejoin:round;stroke-width:2px"/><path d="M23,21H39a2,2,0,0,1,2,2v1a2,2,0,0,1-2,2H23a2,2,0,0,1-2-2V23a2,2,0,0,1,2-2Z" style="fill:none;stroke:#36c;stroke-linecap:round;stroke-linejoin:round;stroke-width:2px"/><path d="M23,26H39a2,2,0,0,1,2,2v1a2,2,0,0,1-2,2H23a2,2,0,0,1-2-2V28a2,2,0,0,1,2-2Z" style="fill:none;stroke:#36c;stroke-linecap:round;stroke-linejoin:round;stroke-width:2px"/><path d="M22.39,31.1A2.09,2.09,0,0,1,23,31H39a2,2,0,0,1,2,2v1a2,2,0,0,1-2,2H29.67" style="fill:none;stroke:#36c;stroke-linecap:round;stroke-linejoin:round;stroke-width:2px"/><path d="M29.67,36H39a2,2,0,0,1,2,2v1a2,2,0,0,1-2,2H31" style="fill:none;stroke:#36c;stroke-linecap:round;stroke-linejoin:round;stroke-width:2px"/><path d="M19.62,50.91A1.81,1.81,0,0,1,19,51H3a2,2,0,0,1-2-2V48a2,2,0,0,1,2-2h9.34" style="fill:none;stroke:#36c;stroke-linecap:round;stroke-linejoin:round;stroke-width:2px"/><path d="M12.34,46H3a2,2,0,0,1-2-2V43a2,2,0,0,1,2-2h8" style="fill:none;stroke:#36c;stroke-linecap:round;stroke-linejoin:round;stroke-width:2px"/><path d="M3,21H19a2,2,0,0,1,2,2v1a2,2,0,0,1-2,2H3a2,2,0,0,1-2-2V23a2,2,0,0,1,2-2Z" style="fill:none;stroke:#36c;stroke-linecap:round;stroke-linejoin:round;stroke-width:2px"/><path d="M3,26H19a2,2,0,0,1,2,2v1a2,2,0,0,1-2,2H3a2,2,0,0,1-2-2V28a2,2,0,0,1,2-2Z" style="fill:none;stroke:#36c;stroke-linecap:round;stroke-linejoin:round;stroke-width:2px"/><path d="M12.34,36H3a2,2,0,0,1-2-2V33a2,2,0,0,1,2-2H19a2.15,2.15,0,0,1,.61.09" style="fill:none;stroke:#36c;stroke-linecap:round;stroke-linejoin:round;stroke-width:2px"/><path d="M11,41H3a2,2,0,0,1-2-2V38a2,2,0,0,1,2-2h9.34" style="fill:none;stroke:#36c;stroke-linecap:round;stroke-linejoin:round;stroke-width:2px"/><path d="M11,41A10,10,0,1,0,21,31,10,10,0,0,0,11,41Z" style="fill:none;stroke:#36c;stroke-linecap:round;stroke-linejoin:round;stroke-width:2px"/><path d="M14.5,41A6.5,6.5,0,1,0,21,34.5,6.5,6.5,0,0,0,14.5,41Z" style="fill:none;stroke:#36c;stroke-linecap:round;stroke-linejoin:round;stroke-width:2px"/></g></g></svg>