<svg xmlns="http://www.w3.org/2000/svg" viewBox="0 0 51.89 51.89"><title>icon4-2</title><g id="Слой_2" data-name="Слой 2"><g id="_4a5681f5-9418-4e91-a144-87eaaa97f465" data-name="4a5681f5-9418-4e91-a144-87eaaa97f465"><path d="M45.43,17.92a20.93,20.93,0,0,0-2.8-4.84l-3.34,2.57a17.06,17.06,0,0,1,2.24,3.87Z" style="fill:none;stroke:#36c;stroke-linecap:round;stroke-linejoin:round;stroke-width:2px"/><path d="M46.83,28.74a21.69,21.69,0,0,0,.18-2.8,22,22,0,0,0-.18-2.8l-4.18.55a17.81,17.81,0,0,1,0,4.48Z" style="fill:none;stroke:#36c;stroke-linecap:round;stroke-linejoin:round;stroke-width:2px"/><path d="M38.81,9.27A20.87,20.87,0,0,0,34,6.46l-1.6,3.9a16.3,16.3,0,0,1,3.88,2.24Z" style="fill:none;stroke:#36c;stroke-linecap:round;stroke-linejoin:round;stroke-width:2px"/><path d="M42.63,38.81A21.26,21.26,0,0,0,45.43,34l-3.89-1.6a17.14,17.14,0,0,1-2.24,3.88Z" style="fill:none;stroke:#36c;stroke-linecap:round;stroke-linejoin:round;stroke-width:2px"/><path d="M9.26,13.09a20.56,20.56,0,0,0-2.81,4.84l3.9,1.6a16.23,16.23,0,0,1,2.24-3.87Z" style="fill:none;stroke:#36c;stroke-linecap:round;stroke-linejoin:round;stroke-width:2px"/><path d="M5.06,23.15a20,20,0,0,0-.19,2.8,19.75,19.75,0,0,0,.19,2.8l4.18-.55a16.45,16.45,0,0,1,0-4.48Z" style="fill:none;stroke:#36c;stroke-linecap:round;stroke-linejoin:round;stroke-width:2px"/><path d="M17.92,6.46a20.8,20.8,0,0,0-4.84,2.81l2.57,3.34a16.23,16.23,0,0,1,3.87-2.24Z" style="fill:none;stroke:#36c;stroke-linecap:round;stroke-linejoin:round;stroke-width:2px"/><path d="M6.46,34a20.87,20.87,0,0,0,2.81,4.85l3.34-2.57a16.3,16.3,0,0,1-2.24-3.88Z" style="fill:none;stroke:#36c;stroke-linecap:round;stroke-linejoin:round;stroke-width:2px"/><path d="M8.28,8.29a25,25,0,1,0,35.31,0A25,25,0,0,0,8.28,8.29Z" style="fill:none;stroke:#36c;stroke-linecap:round;stroke-linejoin:round;stroke-width:2px"/><path d="M25.94,4.87a19.91,19.91,0,0,0-2.79.19l.55,4.18a16.75,16.75,0,0,1,2.24-.16,16.4,16.4,0,0,1,2.24.16l.56-4.18A19.75,19.75,0,0,0,25.94,4.87Z" style="fill:none;stroke:#36c;stroke-linecap:round;stroke-linejoin:round;stroke-width:2px"/><path d="M29.38,26.64A3.4,3.4,0,0,0,29,24.19a3.51,3.51,0,1,0-1.28,4.76A3.44,3.44,0,0,0,29.38,26.64Z" style="fill:none;stroke:#36c;stroke-linecap:round;stroke-linejoin:round;stroke-width:2px"/><polyline points="26.67 29.35 34.48 34.45 29.38 26.64" style="fill:none;stroke:#36c;stroke-linecap:round;stroke-linejoin:round;stroke-width:1.345873818079378px"/></g></g></svg>