<svg xmlns="http://www.w3.org/2000/svg" viewBox="0 0 51.99 51.99"><title>icon3-7</title><g id="Слой_2" data-name="Слой 2"><g id="_4a5681f5-9418-4e91-a144-87eaaa97f465" data-name="4a5681f5-9418-4e91-a144-87eaaa97f465"><path d="M26,51h0A25.07,25.07,0,0,0,51,26h0A15,15,0,0,0,36,11H16A15,15,0,0,0,1,26H1A25.07,25.07,0,0,0,26,51Z" style="fill:none;stroke:#36c;stroke-linecap:round;stroke-linejoin:round;stroke-width:2px"/><path d="M13.5,26a2.5,2.5,0,1,0-2.5-2.5A2.5,2.5,0,0,0,13.5,26Z" style="fill:none;stroke:#36c;stroke-linecap:round;stroke-linejoin:round;stroke-width:2px"/><path d="M38.49,26A2.5,2.5,0,1,0,36,23.49,2.5,2.5,0,0,0,38.49,26Z" style="fill:none;stroke:#36c;stroke-linecap:round;stroke-linejoin:round;stroke-width:2px"/><path d="M26,36c2.75,0,5-1.12,5-2.5S28.74,31,26,31s-5,1.13-5,2.5S23.24,36,26,36Z" style="fill:none;stroke:#36c;stroke-linecap:round;stroke-linejoin:round;stroke-width:2px"/><path d="M7.38,13.75,1,1V26" style="fill:none;stroke:#36c;stroke-linecap:round;stroke-linejoin:round;stroke-width:2px"/><polyline points="44.61 13.75 50.99 1 50.99 25.99" style="fill:none;stroke:#36c;stroke-linecap:round;stroke-linejoin:round;stroke-width:2px"/><path d="M33.6,37.88A5.23,5.23,0,0,1,26.77,36m-1.56,0a5.13,5.13,0,0,1-1.84,1.78,5.22,5.22,0,0,1-5,.14" style="fill:none;stroke:#36c;stroke-linecap:round;stroke-linejoin:round;stroke-width:2px"/></g></g></svg>