<svg xmlns="http://www.w3.org/2000/svg" viewBox="0 0 48.51 48.51"><title>icon1-2</title><g id="Слой_2" data-name="Слой 2"><g id="Слой_1-2" data-name="Слой 1"><g id="Слой_2-2" data-name="Слой 2"><g id="Слой_1-2-2" data-name="Слой 1-2"><path d="M29.42,3.35A22.5,22.5,0,1,1,3.35,29.42" style="fill:none;stroke:#ff0;stroke-linecap:round;stroke-linejoin:round"/><line x1="25.51" y1="0.5" x2="25.51" y2="5.5" style="fill:none;stroke:#ff0;stroke-linecap:round;stroke-linejoin:round"/><path d="M21.32,1.13c.18,1.48.37,3,.56,4.44" style="fill:none;stroke:#ff0;stroke-linecap:round;stroke-linejoin:round"/><path d="M17.25,2.41C17.63,3.7,18,5,18.36,6.3" style="fill:none;stroke:#ff0;stroke-linecap:round;stroke-linejoin:round"/><path d="M13.42,4.35l1.67,3.33" style="fill:none;stroke:#ff0;stroke-linecap:round;stroke-linejoin:round"/><path d="M9.94,6.88l2.22,2.78" style="fill:none;stroke:#ff0;stroke-linecap:round;stroke-linejoin:round"/><path d="M6.88,9.93l2.78,2.23" style="fill:none;stroke:#ff0;stroke-linecap:round;stroke-linejoin:round"/><path d="M4.35,13.42l3.33,1.67" style="fill:none;stroke:#ff0;stroke-linecap:round;stroke-linejoin:round"/><path d="M2.41,17.25,6.3,18.36" style="fill:none;stroke:#ff0;stroke-linecap:round;stroke-linejoin:round"/><path d="M1.13,21.31l4.44.57" style="fill:none;stroke:#ff0;stroke-linecap:round;stroke-linejoin:round"/><line x1="0.5" y1="25.51" x2="5.51" y2="25.51" style="fill:none;stroke:#ff0;stroke-linecap:round;stroke-linejoin:round"/><polyline points="2.12 34.01 3.35 29.42 6.71 32.78" style="fill:none;stroke:#ff0;stroke-linecap:round;stroke-linejoin:round"/><path d="M39,14.28,35.69,11A1.21,1.21,0,0,0,34,11l-6.5,6.5a1.23,1.23,0,0,0,0,1.72l3.25,3.25c.7.76-1.75,4.39-2.75,5.53a12.13,12.13,0,0,1-5.34,2.88c-1.07-1.13-2.24-2.26-3.35-3.37a1.23,1.23,0,0,0-1.72,0L11,34a1.21,1.21,0,0,0,0,1.71L14.25,39c8.46,8.46,33.11-16.21,24.66-24.65Z" style="fill:none;stroke:#ff0;stroke-linecap:round;stroke-linejoin:round"/></g></g></g></g></svg>