<svg xmlns="http://www.w3.org/2000/svg" viewBox="0 0 51.98 31.99"><title>icon3-1</title><g id="Слой_2" data-name="Слой 2"><g id="_4a5681f5-9418-4e91-a144-87eaaa97f465" data-name="4a5681f5-9418-4e91-a144-87eaaa97f465"><path d="M1,18v6a2,2,0,0,0,2,2H6A5,5,0,1,0,6,16H3A2,2,0,0,0,1,18Z" style="fill:none;stroke:#36c;stroke-linecap:round;stroke-linejoin:round;stroke-width:2px"/><path d="M51,13.49V18a2,2,0,0,0-2-2H46v-2.5a2.5,2.5,0,0,1,5,0Z" style="fill:none;stroke:#36c;stroke-linecap:round;stroke-linejoin:round;stroke-width:2px"/><path d="M46,26v3a2,2,0,0,1-2,2H8a2,2,0,0,1-2-2V26A5,5,0,1,0,6,16V3A2,2,0,0,1,8,1H44a2,2,0,0,1,2,2V16a5,5,0,0,0,0,10Z" style="fill:none;stroke:#36c;stroke-linecap:round;stroke-linejoin:round;stroke-width:2px"/><path d="M46,16a5,5,0,0,0,0,10h3a2,2,0,0,0,2-2V18a2,2,0,0,0-2-2Z" style="fill:none;stroke:#36c;stroke-linecap:round;stroke-linejoin:round;stroke-width:2px"/><path d="M6,13.49V16H3a2,2,0,0,0-2,2V13.49a2.48,2.48,0,0,1,.73-1.76A2.5,2.5,0,0,1,6,13.49Z" style="fill:none;stroke:#36c;stroke-linecap:round;stroke-linejoin:round;stroke-width:2px"/></g></g></svg>