<svg xmlns="http://www.w3.org/2000/svg" viewBox="0 0 51 51"><title>icon2-3</title><g id="Слой_2" data-name="Слой 2"><g id="_4a5681f5-9418-4e91-a144-87eaaa97f465" data-name="4a5681f5-9418-4e91-a144-87eaaa97f465"><path d="M25.51.5a25,25,0,1,0,25,25,25.05,25.05,0,0,0-25-25Z" style="fill:none;stroke:#ff0;stroke-linecap:round;stroke-linejoin:round"/><path d="M25.5,6.19a18.33,18.33,0,0,0-2.57.18l.51,3.82a15.33,15.33,0,0,1,4.1,0l.51-3.82a18.3,18.3,0,0,0-2.56-.18Z" style="fill:none;stroke:#ff0;stroke-linecap:round;stroke-linejoin:round"/><path d="M43.36,18.15a19.78,19.78,0,0,0-2.58-4.44l-3.06,2.36a15.05,15.05,0,0,1,2.05,3.56Z" style="fill:none;stroke:#ff0;stroke-linecap:round;stroke-linejoin:round"/><path d="M44.64,28.07a20.2,20.2,0,0,0,.17-2.57,20,20,0,0,0-.17-2.57l-3.83.51a15.33,15.33,0,0,1,0,4.1Z" style="fill:none;stroke:#ff0;stroke-linecap:round;stroke-linejoin:round"/><path d="M37.29,10.21a19.17,19.17,0,0,0-4.44-2.57l-1.46,3.57a15.54,15.54,0,0,1,3.55,2.05Z" style="fill:none;stroke:#ff0;stroke-linecap:round;stroke-linejoin:round"/><path d="M40.79,37.29a19.34,19.34,0,0,0,2.58-4.43l-3.58-1.47a15.19,15.19,0,0,1-2.05,3.55Z" style="fill:none;stroke:#ff0;stroke-linecap:round;stroke-linejoin:round"/><path d="M10.21,13.71a19.37,19.37,0,0,0-2.57,4.44l3.57,1.47a15.4,15.4,0,0,1,2.05-3.56Z" style="fill:none;stroke:#ff0;stroke-linecap:round;stroke-linejoin:round"/><path d="M6.36,22.94a20,20,0,0,0-.17,2.57,20.2,20.2,0,0,0,.17,2.57l3.83-.52a15.33,15.33,0,0,1,0-4.1Z" style="fill:none;stroke:#ff0;stroke-linecap:round;stroke-linejoin:round"/><path d="M18.15,7.65a19.37,19.37,0,0,0-4.44,2.57l2.36,3.06a15.54,15.54,0,0,1,3.55-2.05Z" style="fill:none;stroke:#ff0;stroke-linecap:round;stroke-linejoin:round"/><path d="M7.65,32.86a19.31,19.31,0,0,0,2.57,4.43l3.06-2.36a15.54,15.54,0,0,1-2.05-3.55Z" style="fill:none;stroke:#ff0;stroke-linecap:round;stroke-linejoin:round"/><path d="M28,24l3.91,1.78,5.76,2.62a.31.31,0,0,1,.18.37.32.32,0,0,1-.34.24l-6.3-.61L26.95,28" style="fill:none;stroke:#ff0;stroke-linecap:round;stroke-linejoin:round"/><path d="M28.32,26.25a2.91,2.91,0,1,0-3.57,2.06,2.91,2.91,0,0,0,3.57-2.06Z" style="fill:none;stroke:#ff0;stroke-linecap:round;stroke-linejoin:round"/></g></g></svg>