<svg xmlns="http://www.w3.org/2000/svg" viewBox="0 0 41.01 51"><title>icon1-1</title><g id="Слой_2" data-name="Слой 2"><g id="Слой_1-2" data-name="Слой 1"><g id="Слой_2-2" data-name="Слой 2"><g id="Слой_1-2-2" data-name="Слой 1-2"><path d="M30.5,15.5V5.5a5,5,0,0,0-5-5H5.5a5,5,0,0,0-5,5v40a5,5,0,0,0,5,5h20a5,5,0,0,0,5-5v-10" style="fill:none;stroke:#ff0;stroke-linecap:round;stroke-linejoin:round"/><path d="M27.5,15.5v-4a1,1,0,0,0-1-1H4.5a1,1,0,0,0-1,1v28a1,1,0,0,0,1,1h22a1,1,0,0,0,1-1v-4" style="fill:none;stroke:#ff0;stroke-linecap:round;stroke-linejoin:round"/><path d="M15.5,47.52a2,2,0,1,0-2-2A2,2,0,0,0,15.5,47.52Z" style="fill:none;stroke:#ff0;stroke-linecap:round;stroke-linejoin:round"/><path d="M16.51,35.5h23a1,1,0,0,0,1-1v-18a1,1,0,0,0-1-1h-23a1,1,0,0,0-1,1v18A1,1,0,0,0,16.51,35.5Z" style="fill:none;stroke:#ff0;stroke-linecap:round;stroke-linejoin:round"/><polyline points="15.5 16.5 28.01 25.51 40.51 16.5" style="fill:none;stroke:#ff0;stroke-linecap:round;stroke-linejoin:round"/></g></g></g></g></svg>