<svg xmlns="http://www.w3.org/2000/svg" viewBox="0 0 51.02 44.69"><title>icon2-2</title><g id="Слой_2" data-name="Слой 2"><g id="_4a5681f5-9418-4e91-a144-87eaaa97f465" data-name="4a5681f5-9418-4e91-a144-87eaaa97f465"><path d="M32,4.62A4.12,4.12,0,0,0,27.85.5H23.17a4.13,4.13,0,0,0-4.11,4.12" style="fill:none;stroke:#ff0;stroke-miterlimit:10"/><path d="M5.67,16.49a3.5,3.5,0,0,0-.5,0H3.76A3.26,3.26,0,0,0,.5,19.69h0a3.25,3.25,0,0,0,2.83,3.22" style="fill:none;stroke:#ff0;stroke-miterlimit:10"/><path d="M39.58,40.12v3.12a1,1,0,0,0,1,.94h5.94a.94.94,0,0,0,1-.94V38.69" style="fill:none;stroke:#ff0;stroke-miterlimit:10"/><path d="M43.51,19.14c-.58-1.49-1.23-3.24-1.91-4.69a39.3,39.3,0,0,0-2.8-5.08A9.39,9.39,0,0,0,37,7.23H14.08a9.34,9.34,0,0,0-1.83,2.14,38,38,0,0,0-2.81,5.08C8.7,16,8,17.54,7.41,19.13Z" style="fill:none;stroke:#ff0;stroke-miterlimit:10"/><path d="M7,30.73H43.84a1.42,1.42,0,0,0,1.42-1.42h0V24.38A1.44,1.44,0,0,0,43.84,23H7a1.44,1.44,0,0,0-1.42,1.42v5A1.42,1.42,0,0,0,7,30.75H7Z" style="fill:none;stroke:#ff0;stroke-miterlimit:10"/><path d="M9.57,24.51a2.42,2.42,0,0,1,2,1,1.66,1.66,0,0,1,.41-.06h0a1.49,1.49,0,0,1,1.49,1.44h0A1.49,1.49,0,0,1,12,28.42h0a2.49,2.49,0,0,1-.41-.06A2.43,2.43,0,0,1,7.11,27v0h0a2.44,2.44,0,0,1,2.43-2.45Z" style="fill:none;stroke:#ff0;stroke-miterlimit:10"/><path d="M41.49,24.51a2.42,2.42,0,0,0-2,1,1.66,1.66,0,0,0-.41-.06h0a1.49,1.49,0,0,0-1.49,1.44h0a1.48,1.48,0,0,0,1.45,1.49h0a1.5,1.5,0,0,0,.4-.06,2.46,2.46,0,0,0,2,1.07A2.43,2.43,0,0,0,43.92,27v0h0a2.45,2.45,0,0,0-2.43-2.45h0Z" style="fill:none;stroke:#ff0;stroke-miterlimit:10"/><path d="M45.37,16.49a3.27,3.27,0,0,1,.5,0h1.41a3.26,3.26,0,0,1,3.25,3.24h0a3.25,3.25,0,0,1-2.85,3.22" style="fill:none;stroke:#ff0;stroke-miterlimit:10"/><line x1="3.24" y1="34.79" x2="47.77" y2="34.79" style="fill:none;stroke:#ff0;stroke-miterlimit:10"/><path d="M25.52,40.12H45a2.77,2.77,0,0,0,2.78-2.76V23.52c0-1.54-6.45-18.9-10.62-18.9H13.86C9.69,4.62,3.24,22,3.24,23.52V37.35A2.79,2.79,0,0,0,6,40.12Z" style="fill:none;stroke:#ff0;stroke-miterlimit:10"/><path d="M11.44,40.12v3.12a1,1,0,0,1-1,.94H4.54a1,1,0,0,1-1-.94V38.68" style="fill:none;stroke:#ff0;stroke-miterlimit:10"/></g></g></svg>