<svg xmlns="http://www.w3.org/2000/svg" viewBox="0 0 51.98 51.99"><title>icon3-3</title><g id="Слой_2" data-name="Слой 2"><g id="_4a5681f5-9418-4e91-a144-87eaaa97f465" data-name="4a5681f5-9418-4e91-a144-87eaaa97f465"><path d="M13.49,51H26c0-11-5.58-20-12.49-20S1,39.95,1,51Z" style="fill:none;stroke:#36c;stroke-linecap:round;stroke-linejoin:round;stroke-width:2px"/><path d="M13.49,18.23a5,5,0,1,0,5,5,5,5,0,0,0-5-5Z" style="fill:none;stroke:#36c;stroke-linecap:round;stroke-linejoin:round;stroke-width:2px"/><path d="M36,1C27.71,1,21,5.49,21,11c0,2.59,1.48,4.95,3.9,6.72L23.22,20.3l-2.77,4.3,4.3-2.77,3.52-2.26A20.77,20.77,0,0,0,36,21c8.28,0,15-4.47,15-10S44.26,1,36,1Z" style="fill:none;stroke:#36c;stroke-linecap:round;stroke-linejoin:round;stroke-width:2px"/></g></g></svg>