<svg xmlns="http://www.w3.org/2000/svg" viewBox="0 0 49.33 49.33"><title>icon2-1</title><g id="Слой_2" data-name="Слой 2"><g id="_4a5681f5-9418-4e91-a144-87eaaa97f465" data-name="4a5681f5-9418-4e91-a144-87eaaa97f465"><path d="M3.47,38.82l7.07,7.07c5.85,5.85,18.52,2.7,28.28-7.07S51.75,16.39,45.9,10.54L38.82,3.46" style="fill:none;stroke:#ff0;stroke-miterlimit:10"/><line x1="31.75" y1="31.75" x2="38.82" y2="38.83" style="fill:none;stroke:#ff0;stroke-miterlimit:10"/><path d="M35.84,27l7.07,7.07" style="fill:none;stroke:#ff0;stroke-miterlimit:10"/><path d="M39.08,21.66l7.07,7.07" style="fill:none;stroke:#ff0;stroke-miterlimit:10"/><path d="M41.21,15.84l7.07,7.07" style="fill:none;stroke:#ff0;stroke-miterlimit:10"/><path d="M41.67,9.72l7.07,7.07" style="fill:none;stroke:#ff0;stroke-miterlimit:10"/><path d="M39.4,4.11l7.07,7.07" style="fill:none;stroke:#ff0;stroke-miterlimit:10"/><path d="M12.27,41.74l7.07,7.07" style="fill:none;stroke:#ff0;stroke-miterlimit:10"/><path d="M17.78,40.67l7.07,7.07" style="fill:none;stroke:#ff0;stroke-miterlimit:10"/><path d="M22.91,38.44,30,45.51" style="fill:none;stroke:#ff0;stroke-miterlimit:10"/><line x1="27.55" y1="35.38" x2="34.62" y2="42.44" style="fill:none;stroke:#ff0;stroke-miterlimit:10"/><path d="M31.72,31.73C41.49,22,44.66,9.3,38.8,3.44S20.27.75,10.51,10.51-2.41,32.94,3.44,38.79,22,41.49,31.72,31.73Z" style="fill:none;stroke:#ff0;stroke-miterlimit:10"/><path d="M28.19,28.2c6.51-6.51,8.62-15,4.71-18.86S20.56,7.53,14,14,5.43,29,9.33,32.91s12.35,1.8,18.86-4.71Z" style="fill:none;stroke:#ff0;stroke-miterlimit:10"/><path d="M33.86,10.56C29.59,8,22.12,10.35,16.23,16.23S8.05,29.59,10.57,33.86" style="fill:none;stroke:#ff0;stroke-miterlimit:10"/></g></g></svg>