<svg xmlns="http://www.w3.org/2000/svg" viewBox="0 0 51.39 51.99"><title>icon3-4</title><g id="Слой_2" data-name="Слой 2"><g id="_4a5681f5-9418-4e91-a144-87eaaa97f465" data-name="4a5681f5-9418-4e91-a144-87eaaa97f465"><path d="M1.3,38.25,48.81,51a.4.4,0,0,0,.48-.28l1.09-4.06a.39.39,0,0,0-.28-.48L2.6,33.42a.41.41,0,0,0-.5.28L1,37.75a.41.41,0,0,0,.28.5Z" style="fill:none;stroke:#36c;stroke-linecap:round;stroke-linejoin:round;stroke-width:2px"/><line x1="3.73" y1="33.72" x2="2.43" y2="38.54" style="fill:none;stroke:#36c;stroke-linecap:round;stroke-linejoin:round;stroke-width:2px"/><path d="M2.3,31a18.94,18.94,0,0,1,2.81-5.93,11.31,11.31,0,0,1,5.15-3.46c1.82-.6,3.48-.6,5.15-1.44A10,10,0,0,0,19.57,16c.83-1.66.83-3.33,1.66-5a8.59,8.59,0,0,1,5-4.17C28.74,6,32.07,6,34.57,5.17S38.74,2.68,40.4,1" style="fill:none;stroke:#36c;stroke-linecap:round;stroke-linejoin:round;stroke-width:2px"/></g></g></svg>