<svg xmlns="http://www.w3.org/2000/svg" viewBox="0 0 507.51 512"><title>Mail</title><g id="Слой_2" data-name="Слой 2"><g id="Capa_1" data-name="Capa 1"><path d="M437.42,64.55Q367.39,0,263.31,0,154,0,77,73.43T0,256.21Q0,361,73.22,436.48,146.7,512,270.83,512q74.89,0,147-30.81a31.32,31.32,0,0,0,16.92-40.42h0a31.23,31.23,0,0,0-41.36-16.92q-62.67,26.95-122.62,26.95-95.26,0-147.58-58.07-52.17-58-52.22-136.2,0-84.92,56-141.73Q182.68,58.07,264.25,58q75,0,126.8,46.69t51.7,117.5c0,32.27-7.94,59.22-23.71,80.63S386.87,335,369.85,335c-9.19,0-13.79-4.91-13.79-14.83a275,275,0,0,1,1.78-28.31L377.26,133H310.42l-4.28,15.56q-25.54-20.84-56-20.89-48.25,0-82.62,38.44T133.17,265q0,59.06,30.5,95.36c20.37,24.23,44.81,36.24,73.43,36.24q38.38,0,65.59-32.17,20.52,30.86,60.47,30.81,58.75,0,101.52-51.18T507.51,220.7Q507.51,129.2,437.42,64.55Zm-154,240.33c-11.8,15.88-25.9,23.92-42.3,23.92q-16.76,0-26.95-17.55c-6.89-11.7-10.34-26.22-10.34-43.66q0-32.27,14.41-52c9.61-13.16,21.52-19.84,35.72-19.84,12.32,0,23.29,4.91,32.9,14.83s14.41,23.08,14.41,39.59C301.23,270.73,295.27,288.9,283.47,304.88Z" style="fill:#fff"/></g></g></svg>