<svg xmlns="http://www.w3.org/2000/svg" viewBox="0 0 2500 2500"><title>okru</title><g id="Слой_2" data-name="Слой 2"><g id="Слой_1-2" data-name="Слой 1"><path d="M2500,1250c0,1250,0,1250-1250,1250S0,2500,0,1250,0,0,1250,0,2500,0,2500,1250Z" style="fill:#e27e35"/><path d="M1445.8,1675a905.73,905.73,0,0,0,281-116.46,141.91,141.91,0,0,0-151.13-240.23c-198.24,124.76-453.37,124.51-651.61,0A141.71,141.71,0,0,0,728.52,1363c-41.75,66.16-21.73,153.81,44.43,195.56A905.69,905.69,0,0,0,1054,1675L783.69,1945.56A141.73,141.73,0,0,0,984.13,2146L1250,1880.13,1515.87,2146a141.61,141.61,0,0,0,200.44,0c55.42-55.42,55.42-145.26,0-200.44L1445.8,1675M1250,596.19c110.6,0,200.44,89.84,200.44,200.44,0,110.35-89.84,200.2-200.44,200.2-110.35,0-200.44-89.84-200.44-200.2,0-110.6,90.09-200.44,200.44-200.44Zm0,684.08c266.85,0,483.89-217,483.89-483.65,0-267.09-217-484.13-483.89-484.13s-483.88,217-483.88,483.89S983.15,1280.27,1250,1280.27Z" style="fill:#fff"/></g></g></svg>