<svg xmlns="http://www.w3.org/2000/svg" viewBox="0 0 161.95 15.24"><title>Ресурс 1</title><g id="Слой_2" data-name="Слой 2"><g id="Слой_1-2" data-name="Слой 1"><path d="M4.94,8.4v4.2H3.85V8.4H0V7.31H3.85V3.23H4.94V7.31H8.79V8.4Z"/><path d="M12.07,12.88,17.95,1.31v0H10.89V.2h8.26V1.33L13.34,12.88Z"/><path d="M29.68,15.24H28.62a10.27,10.27,0,0,1-.86-1.31A12,12,0,0,1,27,12.29a11.66,11.66,0,0,1-.55-2.14,15.14,15.14,0,0,1-.2-2.52,14.82,14.82,0,0,1,.19-2.47,9.81,9.81,0,0,1,.56-2,12.12,12.12,0,0,1,.76-1.57A11.71,11.71,0,0,1,28.68.21h1a7.79,7.79,0,0,0-.77,1.18A13.53,13.53,0,0,0,28.2,3a11.31,11.31,0,0,0-.56,2.12,14.74,14.74,0,0,0-.21,2.5A13.7,13.7,0,0,0,29.68,15.24Z"/><path d="M37.68,12.88V10H31.24V8.92q2-3.28,5.84-8.74h1.76V9h1.89V10H38.85v2.87Zm-5.22-4V9h5.22V1.24h0Q34.46,5.67,32.46,8.92Z"/><path d="M46.7,13.09A4.24,4.24,0,0,1,44,12.2,3.72,3.72,0,0,1,42.6,9.87h1.22a2.73,2.73,0,0,0,1,1.56,3.13,3.13,0,0,0,4.51-.89,8,8,0,0,0,1-4.17s0-.07,0-.14,0-.12,0-.15h0a3.33,3.33,0,0,1-1.4,1.75,4.18,4.18,0,0,1-2.34.68,4.1,4.1,0,0,1-3-1.19,4,4,0,0,1-1.2-3,4.19,4.19,0,0,1,1.25-3.11A4.31,4.31,0,0,1,46.78,0a4.25,4.25,0,0,1,2.29.62A4.32,4.32,0,0,1,50.65,2.4a7.74,7.74,0,0,1,.85,3.88,8.57,8.57,0,0,1-1.27,5A4.08,4.08,0,0,1,46.7,13.09Zm.08-5.64a3.2,3.2,0,0,0,2.3-.9A2.9,2.9,0,0,0,50,4.37,3.21,3.21,0,0,0,49.08,2a3.24,3.24,0,0,0-4.57,0,3.13,3.13,0,0,0-.92,2.29,3,3,0,0,0,.91,2.24A3.11,3.11,0,0,0,46.78,7.44Z"/><path d="M58.07,13.09A4.81,4.81,0,0,1,56,12.64a3.85,3.85,0,0,1-1.52-1.25,3.53,3.53,0,0,1-.65-1.81H55a2.54,2.54,0,0,0,1,1.75,3.28,3.28,0,0,0,2.1.69,3.16,3.16,0,0,0,2.32-.9,3.1,3.1,0,0,0,.91-2.3,3.15,3.15,0,0,0-.9-2.3,3.07,3.07,0,0,0-2.28-.91A3.6,3.6,0,0,0,56.39,6a3.12,3.12,0,0,0-1.23,1.19H54l.72-7h7V1.27h-6L55.25,6h0a3.15,3.15,0,0,1,1.28-1,4.19,4.19,0,0,1,1.77-.37,4,4,0,0,1,3,1.2,4.14,4.14,0,0,1,1.19,3,4.08,4.08,0,0,1-1.26,3.08A4.44,4.44,0,0,1,58.07,13.09Z"/><path d="M64.08,15.24a13.7,13.7,0,0,0,2.24-7.63,14.74,14.74,0,0,0-.21-2.5A11.55,11.55,0,0,0,65.57,3a13.09,13.09,0,0,0-.72-1.6A7.79,7.79,0,0,0,64.08.21h1A11.71,11.71,0,0,1,66,1.55a12.12,12.12,0,0,1,.76,1.57,9.81,9.81,0,0,1,.56,2,14.82,14.82,0,0,1,.19,2.47,15.14,15.14,0,0,1-.2,2.52,11.42,11.42,0,0,1-.56,2.14A12.35,12.35,0,0,1,66,13.94a10.27,10.27,0,0,1-.86,1.31Z"/><path d="M78.12,12.88V1.48h0l-.71.5L75.92,3q-.8.56-1.24.83V2.53q.18-.11,1.71-1.17L78.1.18h1.18v12.7Z"/><path d="M85.37,6.85v-1h1.48a3,3,0,0,0,2-.69,2.22,2.22,0,0,0,.78-1.75,2.13,2.13,0,0,0-.74-1.69,3.35,3.35,0,0,0-4,0,2.43,2.43,0,0,0-.87,1.71H82.92A3.45,3.45,0,0,1,84.13.94,4.19,4.19,0,0,1,87,0a4.25,4.25,0,0,1,2.79.92,2.88,2.88,0,0,1,1.12,2.32,2.91,2.91,0,0,1-.71,2,3.25,3.25,0,0,1-1.93,1v0a3.52,3.52,0,0,1,2.32.93,2.91,2.91,0,0,1,.87,2.18,3.27,3.27,0,0,1-.58,1.9,3.83,3.83,0,0,1-1.58,1.31,5.21,5.21,0,0,1-2.22.47,4.77,4.77,0,0,1-3.1-1A3.27,3.27,0,0,1,82.65,9.6h1.16a2.32,2.32,0,0,0,1,1.75A3.57,3.57,0,0,0,87,12a3.49,3.49,0,0,0,2.28-.73,2.29,2.29,0,0,0,.9-1.85,2.3,2.3,0,0,0-.88-1.91,3.79,3.79,0,0,0-2.41-.69Z"/><path d="M96.22,6.85v-1h1.48a3,3,0,0,0,2-.69,2.22,2.22,0,0,0,.78-1.75,2.13,2.13,0,0,0-.74-1.69,3.35,3.35,0,0,0-4,0,2.43,2.43,0,0,0-.87,1.71H93.76A3.45,3.45,0,0,1,95,.94,4.19,4.19,0,0,1,97.8,0a4.25,4.25,0,0,1,2.79.92,2.88,2.88,0,0,1,1.12,2.32,2.91,2.91,0,0,1-.71,2,3.25,3.25,0,0,1-1.93,1v0a3.52,3.52,0,0,1,2.32.93,2.91,2.91,0,0,1,.87,2.18,3.27,3.27,0,0,1-.58,1.9,3.83,3.83,0,0,1-1.58,1.31,5.21,5.21,0,0,1-2.22.47,4.77,4.77,0,0,1-3.1-1A3.27,3.27,0,0,1,93.5,9.6h1.16a2.32,2.32,0,0,0,1,1.75,3.57,3.57,0,0,0,2.25.68,3.49,3.49,0,0,0,2.28-.73,2.29,2.29,0,0,0,.9-1.85,2.3,2.3,0,0,0-.88-1.91,3.79,3.79,0,0,0-2.41-.69Z"/><path d="M110.28,8.4h-5.77V7.31h5.77Z"/><path d="M117.22,13.09a4.24,4.24,0,0,1-2.28-.62,4.38,4.38,0,0,1-1.6-1.78,7.74,7.74,0,0,1-.85-3.88,8.55,8.55,0,0,1,1.28-5A4.09,4.09,0,0,1,117.3,0a4.23,4.23,0,0,1,2.7.88,3.75,3.75,0,0,1,1.39,2.34h-1.21a2.7,2.7,0,0,0-1-1.56,3.14,3.14,0,0,0-4.55,1,8.37,8.37,0,0,0-1,4.37h0a3.43,3.43,0,0,1,1.42-1.74,4.17,4.17,0,0,1,2.32-.67,4.09,4.09,0,0,1,4.21,4.19,4.15,4.15,0,0,1-1.25,3.09A4.32,4.32,0,0,1,117.22,13.09Zm0-1.07a3.07,3.07,0,0,0,2.26-.93,3.1,3.1,0,0,0,.93-2.28,3.08,3.08,0,0,0-3.18-3.16,3.19,3.19,0,0,0-2.29.89A2.9,2.9,0,0,0,114,8.72a3.23,3.23,0,0,0,.93,2.34A3.07,3.07,0,0,0,117.21,12Z"/><path d="M123.75,3.75a3.53,3.53,0,0,1,1.16-2.69,4.44,4.44,0,0,1,5.7-.07,3.15,3.15,0,0,1,1.14,2.46,3.89,3.89,0,0,1-.58,2A16.06,16.06,0,0,1,129,8.09l-3.53,3.69v0h6.59v1.07h-8.27V12l4.48-4.74a14.54,14.54,0,0,0,1.81-2.19,3,3,0,0,0,.45-1.58,2.27,2.27,0,0,0-.81-1.76,3.07,3.07,0,0,0-4,0,2.6,2.6,0,0,0-.83,1.93h-1.16Z"/><path d="M140,8.4h-5.77V7.31H140Z"/><path d="M142.46,3.75a3.53,3.53,0,0,1,1.16-2.69,4.44,4.44,0,0,1,5.7-.07,3.15,3.15,0,0,1,1.14,2.46,3.89,3.89,0,0,1-.58,2,16.06,16.06,0,0,1-2.16,2.61l-3.53,3.69v0h6.59v1.07h-8.27V12L147,7.3a14.54,14.54,0,0,0,1.81-2.19,3,3,0,0,0,.45-1.58,2.27,2.27,0,0,0-.81-1.76,3.07,3.07,0,0,0-4,0,2.6,2.6,0,0,0-.83,1.93h-1.16Z"/><path d="M157.55,13.09a4.24,4.24,0,0,1-2.28-.62,4.38,4.38,0,0,1-1.6-1.78,7.74,7.74,0,0,1-.85-3.88,8.55,8.55,0,0,1,1.28-5A4.09,4.09,0,0,1,157.64,0a4.23,4.23,0,0,1,2.7.88,3.75,3.75,0,0,1,1.39,2.34h-1.21a2.7,2.7,0,0,0-1-1.56,3.14,3.14,0,0,0-4.55,1A8.37,8.37,0,0,0,154,7h0a3.43,3.43,0,0,1,1.42-1.74,4.17,4.17,0,0,1,2.32-.67A4.09,4.09,0,0,1,162,8.77a4.15,4.15,0,0,1-1.25,3.09A4.32,4.32,0,0,1,157.55,13.09Zm0-1.07a3.07,3.07,0,0,0,2.26-.93,3.1,3.1,0,0,0,.93-2.28,3.08,3.08,0,0,0-3.18-3.16,3.19,3.19,0,0,0-2.29.89,2.9,2.9,0,0,0-.94,2.18,3.23,3.23,0,0,0,.93,2.34A3.07,3.07,0,0,0,157.54,12Z"/></g></g></svg>