<svg xmlns="http://www.w3.org/2000/svg" viewBox="0 0 2500 2500"><title>vk</title><g id="Слой_2" data-name="Слой 2"><g id="Слой_1-2" data-name="Слой 1"><path d="M385.23,0H2114.77C2327.52,0,2500,172.47,2500,385.23V2114.77c0,212.75-172.48,385.23-385.23,385.23H385.23C172.47,2500,0,2327.52,0,2114.77V385.23C0,172.47,172.47,0,385.23,0" style="fill:#4c75a3"/><path d="M1229,1750.08h102.26s30.88-3.4,46.67-20.39c14.51-15.61,14.05-44.92,14.05-44.92s-2-137.22,61.67-157.43c62.79-19.91,143.41,132.62,228.85,191.27,64.61,44.37,113.72,34.66,113.72,34.66l228.49-3.2s119.52-7.37,62.84-101.35c-4.64-7.67-33-69.51-169.89-196.56-143.28-133-124.07-111.46,48.51-341.48,105.1-140.08,147.11-225.59,134-262.22-12.51-34.89-89.82-25.68-89.82-25.68l-257.26,1.59s-19.08-2.6-33.22,5.86c-13.83,8.27-22.7,27.6-22.7,27.6s-40.73,108.39-95,200.58c-114.55,194.51-160.36,204.81-179.09,192.71-43.57-28.15-32.68-113.08-32.68-173.43,0-188.51,28.59-267.11-55.68-287.46-28-6.75-48.56-11.21-120.08-11.94-91.8-.93-169.47.28-213.47,21.83-29.27,14.33-51.85,46.27-38.09,48.1,17,2.26,55.5,10.39,75.92,38.16,26.37,35.88,25.45,116.41,25.45,116.41s15.15,221.91-35.38,249.47c-34.67,18.91-82.24-19.69-184.37-196.16-52.32-90.4-91.84-190.33-91.84-190.33s-7.61-18.67-21.2-28.67C715.19,825,692.16,821.2,692.16,821.2l-244.47,1.6s-36.69,1-50.17,17c-12,14.21-1,43.55-1,43.55s191.38,447.77,408.1,673.42C1003.39,1763.66,1229,1750.08,1229,1750.08" style="fill:#fff"/></g></g></svg>